<mxfile host="app.diagrams.net" modified="2022-03-28T01:55:02.796Z" agent="5.0 (Windows NT 10.0; Win64; x64) AppleWebKit/537.36 (KHTML, like Gecko) Chrome/99.0.4844.82 Safari/537.36" etag="AvNgrDxAXWfmBYwhLFVb" version="17.2.4" type="github">
  <diagram id="xn7IB639SFD_PB0dudpU" name="第 1 页">
    <mxGraphModel dx="1038" dy="573" grid="1" gridSize="10" guides="1" tooltips="1" connect="1" arrows="1" fold="1" page="1" pageScale="1" pageWidth="827" pageHeight="1169" math="0" shadow="0">
      <root>
        <mxCell id="0" />
        <mxCell id="1" parent="0" />
        <mxCell id="c9D5otIIhs6nw2Z6nvrL-6" style="rounded=0;orthogonalLoop=1;jettySize=auto;html=1;exitX=1;exitY=0.5;exitDx=0;exitDy=0;entryX=0;entryY=0.25;entryDx=0;entryDy=0;fontFamily=Georgia;fontSize=15;" edge="1" parent="1" source="c9D5otIIhs6nw2Z6nvrL-1" target="c9D5otIIhs6nw2Z6nvrL-5">
          <mxGeometry relative="1" as="geometry" />
        </mxCell>
        <mxCell id="c9D5otIIhs6nw2Z6nvrL-1" value="Thread" style="rounded=0;whiteSpace=wrap;html=1;" vertex="1" parent="1">
          <mxGeometry x="160" y="40" width="120" height="60" as="geometry" />
        </mxCell>
        <mxCell id="c9D5otIIhs6nw2Z6nvrL-7" style="edgeStyle=none;rounded=0;orthogonalLoop=1;jettySize=auto;html=1;exitX=1;exitY=0.5;exitDx=0;exitDy=0;entryX=0;entryY=0.75;entryDx=0;entryDy=0;fontFamily=Georgia;fontSize=15;" edge="1" parent="1" source="c9D5otIIhs6nw2Z6nvrL-2" target="c9D5otIIhs6nw2Z6nvrL-5">
          <mxGeometry relative="1" as="geometry" />
        </mxCell>
        <mxCell id="c9D5otIIhs6nw2Z6nvrL-2" value="Runbable" style="rounded=0;whiteSpace=wrap;html=1;" vertex="1" parent="1">
          <mxGeometry x="160" y="120" width="120" height="60" as="geometry" />
        </mxCell>
        <mxCell id="c9D5otIIhs6nw2Z6nvrL-3" value="Callable" style="rounded=0;whiteSpace=wrap;html=1;" vertex="1" parent="1">
          <mxGeometry x="160" y="200" width="120" height="60" as="geometry" />
        </mxCell>
        <mxCell id="c9D5otIIhs6nw2Z6nvrL-5" value="MyClass" style="rounded=1;whiteSpace=wrap;html=1;fontFamily=Georgia;fontSize=15;" vertex="1" parent="1">
          <mxGeometry x="440" y="80" width="120" height="60" as="geometry" />
        </mxCell>
        <mxCell id="c9D5otIIhs6nw2Z6nvrL-8" value="继承重写Run" style="text;html=1;strokeColor=none;fillColor=none;align=center;verticalAlign=middle;whiteSpace=wrap;rounded=0;fontFamily=Georgia;fontSize=15;" vertex="1" parent="1">
          <mxGeometry x="300" y="60" width="120" height="30" as="geometry" />
        </mxCell>
      </root>
    </mxGraphModel>
  </diagram>
</mxfile>
